<?xml version="1.0" encoding="UTF-8" standalone="no"?>
<!DOCTYPE svg PUBLIC "-//W3C//DTD SVG 1.1//EN" "http://www.w3.org/Graphics/SVG/1.1/DTD/svg11.dtd">
<svg width="100%" height="100%" viewBox="0 0 73 73" version="1.1" xmlns="http://www.w3.org/2000/svg" xmlns:xlink="http://www.w3.org/1999/xlink" xml:space="preserve" xmlns:serif="http://www.serif.com/" style="fill-rule:evenodd;clip-rule:evenodd;stroke-linejoin:round;stroke-miterlimit:2;">
    <g transform="matrix(1,0,0,1,0.4985,0.4985)">
        <path d="M70.618,36.001C70.618,55.079 55.079,70.618 36.001,70.618C16.924,70.618 1.385,55.079 1.385,36.001C1.385,16.924 16.924,1.385 36.001,1.385C55.079,1.385 70.618,16.924 70.618,36.001Z" style="fill:rgb(162,215,244);fill-rule:nonzero;"/>
    </g>
    <g transform="matrix(1,0,0,1,0.4985,0.4985)">
        <path d="M17.231,64.618C17.231,64.618 21.385,62.31 24.001,61.387C26.463,60.464 31.54,59.233 31.54,59.233L31.54,50.617C31.54,50.617 25.078,47.233 24.001,45.848C22.77,44.463 20.77,39.386 20.77,39.386L18.616,39.386L15.693,38.309L14.924,36.001L14.924,33.078L18.308,32.617L17.385,29.54L18.308,22.001C18.308,22.001 21.232,15.231 22.309,14.001C23.386,12.924 28.155,9.847 30.463,9.077C32.924,8.462 39.694,7.077 41.386,8.154C43.079,9.385 48.31,12.154 50.002,14.462C51.694,16.924 54.618,20.309 54.31,22.616C54.002,24.924 54.31,28.001 54.31,28.001L53.541,32.617L56.464,33.232L58.002,35.54L57.233,38.309L54.771,39.848L50.771,39.386L50.156,42.617L47.233,46.771L41.386,51.079L41.694,58.156L47.848,59.849L55.079,64.003C55.079,64.003 52.925,66.464 51.079,67.233C45.386,69.541 41.694,70.157 36.001,70.618C34.463,70.772 28.001,69.849 25.232,68.926C22.462,68.003 17.231,64.618 17.231,64.618Z" style="fill:rgb(254,254,254);fill-rule:nonzero;"/>
    </g>
    <g transform="matrix(1,0,0,1,0.4985,0.4985)">
        <path d="M36.617,22.155C34.924,22.309 33.848,21.847 32.617,21.232C31.694,20.924 30.77,20.462 29.54,20.309C28.463,20.309 27.386,20.77 26.463,21.385C25.232,22.309 24.155,23.847 23.232,25.232C22.462,26.77 21.693,28.77 21.385,31.386C21.078,34.001 21.385,37.078 22.616,40.925C23.386,43.232 24.924,45.079 26.77,46.617C28.001,47.54 29.386,48.31 30.924,48.925L31.232,48.925C32.155,49.387 33.232,49.694 34.155,49.848C36.925,50.31 39.232,49.848 41.386,48.925C44.156,47.694 46.31,45.848 47.694,43.848C49.079,42.156 49.848,40.002 50.31,37.848C50.925,35.386 51.079,32.771 50.771,30.77C50.464,28.617 49.233,25.693 47.54,23.539C46.31,22.001 44.771,20.77 42.925,20.616C41.54,20.616 40.925,20.924 40.309,21.232C39.54,21.539 38.463,22.001 36.617,22.155ZM72.003,36.001C72.003,46.002 68.003,54.925 61.541,61.541C54.925,68.003 46.002,72.003 36.001,72.003C26.001,72.003 17.078,68.003 10.616,61.541C4,54.925 0,46.002 0,36.001C0,26.001 4,17.078 10.616,10.616C17.078,4 26.001,0 36.001,0C46.002,0 54.925,4 61.541,10.616C68.003,17.078 72.003,26.001 72.003,36.001ZM59.541,59.541C65.541,53.541 69.234,45.233 69.234,36.001C69.234,26.924 65.541,18.616 59.541,12.616C53.541,6.462 45.233,2.769 36.001,2.769C26.924,2.769 18.616,6.462 12.616,12.616C6.462,18.616 2.769,26.924 2.769,36.001C2.769,45.233 6.462,53.541 12.616,59.541C13.847,60.772 15.231,62.002 16.77,63.079C18.155,61.695 20.462,60.156 23.078,58.925C25.078,58.002 27.232,57.233 29.078,57.079L29.078,51.233C27.693,50.617 26.309,49.694 25.078,48.771C22.77,46.925 20.924,44.617 20.001,41.848C19.847,41.386 19.693,41.079 19.693,40.771L19.539,40.771C18.924,40.925 18.308,40.925 17.693,40.771C17.078,40.771 16.308,40.463 15.693,40.155C14.462,39.386 13.539,38.155 13.539,36.001C13.539,32.924 14.77,31.847 16.154,31.54C15.693,29.847 15.693,27.847 16.001,25.847C16.462,22.462 17.847,18.77 19.232,16.308C19.385,15.847 19.693,15.385 20.001,14.924C21.078,13.231 23.078,10.616 26.616,8.923C29.078,7.693 32.155,6.77 36.001,6.77C40.771,6.77 44.309,8 46.925,9.693C49.54,11.539 51.387,13.847 52.925,16.154C54.771,19.232 55.848,22.155 56.156,24.924C56.464,27.232 56.156,29.54 55.541,31.386C57.233,31.847 59.387,32.771 59.387,35.54C59.387,36.617 59.233,37.694 58.618,38.463C58.31,39.232 57.695,40.002 56.925,40.463C56.31,40.925 55.387,41.232 54.464,41.232C53.848,41.232 53.233,41.079 52.464,40.771C51.848,42.463 51.079,44.156 50.002,45.54C48.31,47.694 45.848,50.002 42.771,51.387L42.771,57.079C44.771,57.233 47.079,58.002 49.233,58.925C51.848,60.002 54.31,61.387 55.848,62.618C57.079,61.695 58.31,60.618 59.541,59.541ZM19.078,64.618C24.001,67.541 29.847,69.234 36.001,69.234C42.309,69.234 48.31,67.387 53.387,64.31C52.002,63.387 50.156,62.31 48.156,61.541C45.848,60.464 43.386,59.849 41.386,59.695C40.617,59.695 40.002,59.079 40.002,58.31L40.002,52.31C38.002,52.925 36.001,52.925 33.694,52.617C33.078,52.464 32.617,52.31 32.001,52.156L32.001,58.31C32.001,59.079 31.386,59.695 30.463,59.695C28.77,59.695 26.463,60.464 24.309,61.541C22.155,62.464 20.309,63.541 19.078,64.618ZM30.309,34.001C30.309,35.078 29.232,36.155 28.155,36.155C26.924,36.155 25.847,35.078 25.847,34.001C25.847,32.771 26.924,31.694 28.155,31.694C29.232,31.694 30.309,32.771 30.309,34.001ZM45.848,34.001C45.848,35.078 44.925,36.155 43.694,36.155C42.463,36.155 41.386,35.078 41.386,34.001C41.386,32.771 42.463,31.694 43.694,31.694C44.925,31.694 45.848,32.771 45.848,34.001ZM27.693,40.155C27.693,39.386 28.309,38.771 29.078,38.771C29.847,38.771 30.463,39.386 30.463,40.155C30.463,40.771 31.078,41.54 32.001,42.309C32.924,43.079 34.001,43.694 35.386,43.848C36.463,44.002 38.155,43.694 39.54,42.617C40.463,42.002 41.232,41.079 41.386,39.694C41.54,38.925 42.156,38.309 42.925,38.463C43.694,38.617 44.309,39.232 44.156,40.002C43.848,42.309 42.617,43.848 41.232,44.925C39.232,46.31 36.617,46.771 35.078,46.617C33.232,46.463 31.386,45.54 30.155,44.463C28.617,43.232 27.693,41.54 27.693,40.155ZM53.233,38.002L53.387,38.002C53.848,38.309 54.156,38.309 54.464,38.309C54.771,38.309 55.079,38.309 55.387,38.155C55.695,37.848 56.002,37.54 56.156,37.232C56.464,36.771 56.618,36.155 56.618,35.54C56.618,34.155 54.31,34.001 53.694,34.001C53.694,35.232 53.541,36.617 53.233,38.002ZM53.233,29.078C53.541,27.847 53.541,26.616 53.387,25.232C53.079,22.924 52.156,20.309 50.464,17.693C49.233,15.693 47.694,13.539 45.386,12.154C43.079,10.616 40.155,9.539 36.001,9.539C32.617,9.539 30.001,10.308 28.001,11.385C24.924,12.924 23.232,14.924 22.309,16.462C22.155,16.77 21.847,17.078 21.693,17.539C20.462,19.847 19.232,23.232 18.77,26.155C18.462,27.693 18.462,29.078 18.77,30.309C19.078,27.693 20.001,25.539 20.924,23.847C21.847,22.155 23.232,20.309 24.77,19.232C26.309,18.155 27.847,17.539 29.693,17.539C31.54,17.693 32.771,18.155 33.848,18.77C34.617,19.078 35.54,19.539 36.309,19.385C37.848,19.232 38.463,18.924 39.078,18.616C40.002,18.155 40.925,17.693 43.079,17.847C45.694,18.001 48.002,19.539 49.694,21.693C51.541,23.847 52.771,26.77 53.233,29.078ZM18.616,34.771C17.847,34.463 16.308,34.155 16.308,36.001C16.308,36.925 16.616,37.386 17.231,37.694C17.385,37.848 17.693,38.002 18.001,38.002C18.308,38.155 18.616,38.002 18.924,38.002C19.078,38.002 18.924,38.463 19.078,38.155C18.77,37.078 18.616,35.848 18.616,34.771Z" style="fill:rgb(55,52,53);fill-rule:nonzero;"/>
    </g>
</svg>
