<?xml version="1.0" encoding="UTF-8" standalone="no"?>
<!DOCTYPE svg PUBLIC "-//W3C//DTD SVG 1.1//EN" "http://www.w3.org/Graphics/SVG/1.1/DTD/svg11.dtd">
<svg width="100%" height="100%" viewBox="0 0 73 73" version="1.1" xmlns="http://www.w3.org/2000/svg" xmlns:xlink="http://www.w3.org/1999/xlink" xml:space="preserve" xmlns:serif="http://www.serif.com/" style="fill-rule:evenodd;clip-rule:evenodd;stroke-linejoin:round;stroke-miterlimit:2;">
    <g transform="matrix(1,0,0,1,0.4985,0.4985)">
        <path d="M70.605,36.001C70.605,54.876 54.876,70.605 36.001,70.605C16.777,70.605 1.398,54.876 1.398,36.001C1.398,16.777 16.777,1.398 36.001,1.398C54.876,1.398 70.605,16.777 70.605,36.001Z" style="fill:rgb(243,146,188);fill-rule:nonzero;"/>
    </g>
    <g transform="matrix(1,0,0,1,0.4985,0.4985)">
        <path d="M14.331,62.915C14.331,62.915 22.719,69.207 32.506,70.255C40.196,70.954 47.186,68.857 49.983,67.459C52.429,66.41 56.624,63.614 56.624,63.614C56.624,63.614 55.925,26.215 55.226,23.069C54.526,19.574 49.284,11.185 39.497,10.136C29.71,8.738 22.719,13.282 20.622,16.078C18.875,18.525 15.03,24.817 15.03,33.904C15.03,42.992 14.331,62.915 14.331,62.915Z" style="fill:rgb(254,254,254);fill-rule:nonzero;"/>
    </g>
    <g transform="matrix(1,0,0,1,0.4985,0.4985)">
        <path d="M72.003,36.001C72.003,45.788 67.809,54.876 61.167,61.167C54.876,67.809 45.788,72.003 36.001,72.003C25.865,72.003 17.127,67.809 10.486,61.167C4.194,54.876 0,45.788 0,36.001C0,25.865 4.194,17.127 10.486,10.486C17.127,4.194 25.865,0 36.001,0C45.788,0 54.876,4.194 61.167,10.486C67.809,17.127 72.003,25.865 72.003,36.001ZM25.865,19.224C26.564,18.875 26.914,18.875 27.263,18.875L27.613,19.224C27.613,19.224 27.962,19.224 27.962,19.574C29.36,21.321 31.807,23.768 34.603,25.516C36.7,27.263 38.798,28.661 40.545,29.011C44.74,30.059 50.682,30.409 51.73,30.409C52.429,30.409 53.128,31.108 53.128,31.807C53.128,31.807 53.478,35.652 53.128,38.099C52.779,39.497 52.429,41.594 51.381,44.041C49.983,46.487 47.885,49.284 44.39,51.381C43.691,51.73 42.992,52.08 42.642,52.429L42.642,58.371C44.041,59.07 45.788,60.119 47.186,61.517C48.584,62.915 49.633,64.313 50.682,65.711C52.08,64.663 53.827,63.964 55.226,62.915C55.226,58.721 55.575,36.7 54.876,27.962C54.526,23.418 53.478,20.273 51.381,17.826C49.284,15.03 46.837,13.282 44.041,11.884C41.943,10.835 38.448,10.136 34.953,10.486C31.807,10.835 28.312,11.534 25.166,13.282C22.37,14.68 20.273,17.127 18.875,19.923C16.777,23.418 16.078,27.613 16.078,30.759C15.729,36.001 15.729,58.022 15.729,62.216C17.476,63.614 19.224,64.663 21.321,65.711L21.321,65.362C22.37,63.614 23.768,62.216 24.817,61.167C26.215,60.119 27.613,59.07 28.661,58.371L28.661,52.429C26.914,51.73 25.516,50.682 24.117,49.284C18.525,43.691 18.525,39.147 18.525,33.904C18.525,24.817 25.865,19.224 25.865,19.224ZM47.885,66.76C47.186,65.711 46.138,64.663 45.089,63.614C43.691,62.216 41.943,61.167 40.545,60.468C40.196,60.468 39.846,59.769 39.846,59.07L39.846,53.128C37.749,53.827 35.652,53.827 33.555,53.827C32.856,53.478 32.157,53.478 31.458,53.478L31.458,59.07C31.458,59.769 31.108,60.119 30.759,60.468C29.36,61.167 27.962,61.867 26.914,63.265C25.865,64.313 24.817,65.362 23.768,66.76C27.613,68.158 31.807,69.207 36.001,69.207C40.196,69.207 44.39,68.158 47.885,66.76ZM27.613,41.943C27.613,41.244 28.312,40.545 29.011,40.545C29.71,40.545 30.409,41.244 30.409,41.943C30.409,42.642 30.759,43.342 31.807,44.041C32.506,44.74 33.555,45.089 34.603,45.439C35.652,45.439 37.749,45.089 39.497,44.39C40.196,43.691 41.244,42.642 41.244,41.594C41.244,40.545 41.943,40.196 42.992,40.196C43.691,40.196 44.041,40.895 44.041,41.943C43.691,44.041 42.293,45.788 40.895,46.487C38.798,47.885 36.001,48.235 34.254,48.235C32.506,47.885 30.759,47.186 29.71,46.138C28.312,45.089 27.613,43.342 27.613,41.943ZM45.788,35.652C45.788,37.05 44.74,37.749 43.691,37.749C42.293,37.749 41.244,37.05 41.244,35.652C41.244,34.603 42.293,33.555 43.691,33.555C44.74,33.555 45.788,34.603 45.788,35.652ZM30.059,35.652C30.059,37.05 29.36,37.749 27.962,37.749C26.914,37.749 25.865,37.05 25.865,35.652C25.865,34.603 26.914,33.555 27.962,33.555C29.36,33.555 30.059,34.603 30.059,35.652ZM12.933,59.769C12.933,52.779 12.933,35.302 13.282,30.759C13.282,27.263 14.331,22.719 16.428,18.525C18.175,15.379 20.622,12.583 23.768,10.835C27.613,8.738 31.108,8.039 34.953,7.69C38.798,7.34 42.642,8.039 45.439,9.437C48.235,11.185 51.381,12.933 53.478,16.078C55.925,18.875 57.323,22.719 57.672,27.962C58.371,35.652 58.022,53.478 58.022,60.468C58.371,60.119 59.07,59.769 59.42,59.42C65.362,53.478 69.207,45.089 69.207,36.001C69.207,26.914 65.362,18.525 59.42,12.583C53.478,6.641 45.089,2.796 36.001,2.796C26.914,2.796 18.525,6.641 12.583,12.583C6.641,18.525 2.796,26.914 2.796,36.001C2.796,45.089 6.641,53.478 12.583,59.42L12.933,59.769ZM26.564,22.37C24.817,23.768 21.321,27.962 21.321,33.904C21.321,38.448 21.321,42.293 26.215,47.186C28.312,49.284 31.108,50.682 33.904,51.031C36.7,51.381 39.846,50.682 42.992,48.934C45.788,47.186 47.536,45.089 48.584,42.992C49.633,40.545 50.332,38.798 50.332,37.749L50.332,33.205C48.235,33.205 43.342,32.856 39.846,31.807C37.749,31.108 35.302,29.71 32.856,27.962C30.409,26.215 28.312,24.117 26.564,22.37Z" style="fill:rgb(55,52,53);fill-rule:nonzero;"/>
    </g>
</svg>
